<?xml version="1.0" encoding="UTF-8" standalone="no"?>
<!-- Created with Inkscape (http://www.inkscape.org/) -->

<svg
   xmlns:dc="http://purl.org/dc/elements/1.1/"
   xmlns:cc="http://creativecommons.org/ns#"
   xmlns:rdf="http://www.w3.org/1999/02/22-rdf-syntax-ns#"
   xmlns:svg="http://www.w3.org/2000/svg"
   xmlns="http://www.w3.org/2000/svg"
   xmlns:xlink="http://www.w3.org/1999/xlink"
   xmlns:sodipodi="http://sodipodi.sourceforge.net/DTD/sodipodi-0.dtd"
   xmlns:inkscape="http://www.inkscape.org/namespaces/inkscape"
   width="744.09448819"
   height="1052.3622047"
   id="svg2"
   version="1.1"
   inkscape:version="0.48.3.1 r9886"
   sodipodi:docname="banner-small.svg">
  <defs
     id="defs4">
    <linearGradient
       y2="52.625473"
       x2="19.672924"
       y1="23.114082"
       x1="19.347122"
       gradientTransform="matrix(1.1722151,0,0,0.86009759,0.175269,-0.497829)"
       gradientUnits="userSpaceOnUse"
       id="linearGradient3077"
       xlink:href="#linearGradient172"
       inkscape:collect="always" />
    <linearGradient
       y2="37.720802"
       x2="30.587307"
       y1="33.139202"
       x1="10.861447"
       gradientTransform="matrix(1.1722151,0,0,0.86009759,0.175269,-0.497829)"
       gradientUnits="userSpaceOnUse"
       id="linearGradient3075"
       xlink:href="#linearGradient1065"
       inkscape:collect="always" />
    <linearGradient
       y2="69.460503"
       x2="7.5291119"
       y1="27.376621"
       x1="7.3738608"
       gradientTransform="matrix(3.5204108,0,0,0.34801552,-3.2458502,-0.14499597)"
       gradientUnits="userSpaceOnUse"
       id="linearGradient3072"
       xlink:href="#linearGradient149"
       inkscape:collect="always" />
    <linearGradient
       y2="48.805084"
       x2="25.312450"
       y1="25.335417"
       x1="17.573946"
       gradientTransform="matrix(1.1722161,0,0,0.86009759,0.253928,-0.654813)"
       gradientUnits="userSpaceOnUse"
       id="linearGradient3062"
       xlink:href="#linearGradient368"
       inkscape:collect="always" />
    <linearGradient
       y2="23.600779"
       x2="19.857769"
       y1="38.962704"
       x1="19.977491"
       gradientTransform="matrix(1.2121326,0,0,0.83177295,0.219976,-0.497829)"
       gradientUnits="userSpaceOnUse"
       id="linearGradient3059"
       xlink:href="#linearGradient381"
       inkscape:collect="always" />
    <linearGradient
       y2="69.460503"
       x2="7.5291119"
       y1="27.376621"
       x1="7.3738608"
       gradientTransform="matrix(3.495016,0,0,0.344323,-2.972087,-0.03408148)"
       gradientUnits="userSpaceOnUse"
       id="linearGradient3977"
       xlink:href="#linearGradient149"
       inkscape:collect="always" />
    <linearGradient
       inkscape:collect="always"
       xlink:href="#linearGradient381"
       id="linearGradient384"
       gradientTransform="scale(1.215669,0.822592)"
       x1="19.977491"
       y1="38.962704"
       x2="19.857769"
       y2="23.600779"
       gradientUnits="userSpaceOnUse" />
    <linearGradient
       inkscape:collect="always"
       xlink:href="#linearGradient368"
       id="linearGradient374"
       gradientUnits="userSpaceOnUse"
       gradientTransform="scale(1.175636,0.850604)"
       x1="17.573946"
       y1="25.335417"
       x2="25.312450"
       y2="48.805084" />
    <linearGradient
       inkscape:collect="always"
       xlink:href="#linearGradient172"
       id="linearGradient101"
       gradientTransform="scale(1.175635,0.850604)"
       x1="19.347122"
       y1="23.114082"
       x2="19.672924"
       y2="52.625473"
       gradientUnits="userSpaceOnUse" />
    <linearGradient
       gradientUnits="userSpaceOnUse"
       y2="37.720802"
       x2="30.587307"
       y1="33.139202"
       x1="10.861447"
       gradientTransform="scale(1.175635,0.850604)"
       id="linearGradient1068"
       xlink:href="#linearGradient1065"
       inkscape:collect="always" />
    <linearGradient
       inkscape:collect="always"
       xlink:href="#linearGradient161"
       id="linearGradient164"
       gradientTransform="matrix(2.374946,0,0,0.506711,-2.79531,-0.166664)"
       x1="2.9325605"
       y1="21.169637"
       x2="19.737664"
       y2="21.169637"
       gradientUnits="userSpaceOnUse" />
    <linearGradient
       inkscape:collect="always"
       xlink:href="#linearGradient157"
       id="linearGradient160"
       gradientTransform="matrix(0.772488,0,0,1.55784,-2.79531,-0.166664)"
       x1="55.208272"
       y1="6.8897981"
       x2="60.685901"
       y2="6.8897981"
       gradientUnits="userSpaceOnUse" />
    <linearGradient
       inkscape:collect="always"
       xlink:href="#linearGradient149"
       id="linearGradient152"
       gradientTransform="matrix(3.495016,0,0,0.344323,-2.972087,-3.408148e-2)"
       x1="7.3738608"
       y1="27.376621"
       x2="7.5291119"
       y2="69.460503"
       gradientUnits="userSpaceOnUse" />
    <linearGradient
       gradientUnits="userSpaceOnUse"
       y2="110.61378"
       x2="-4.5239210"
       y1="104.38752"
       x1="-4.6375198"
       gradientTransform="matrix(1.464893,0,0,0.475906,30.56501,-34.34268)"
       id="linearGradient1872"
       xlink:href="#linearGradient1869"
       inkscape:collect="always" />
    <linearGradient
       id="linearGradient1869">
      <stop
         id="stop1870"
         offset="0"
         style="stop-color:#69a1d0;stop-opacity:1;" />
      <stop
         id="stop1871"
         offset="1"
         style="stop-color:#1c679e;stop-opacity:1;" />
    </linearGradient>
    <linearGradient
       inkscape:collect="always"
       id="linearGradient149">
      <stop
         style="stop-color:#000000;stop-opacity:1;"
         offset="0"
         id="stop150" />
      <stop
         style="stop-color:#000000;stop-opacity:0;"
         offset="1"
         id="stop151" />
    </linearGradient>
    <linearGradient
       id="linearGradient157">
      <stop
         style="stop-color:#4183b6;stop-opacity:1;"
         offset="0"
         id="stop158" />
      <stop
         style="stop-color:#3c78a7;stop-opacity:1;"
         offset="1"
         id="stop159" />
    </linearGradient>
    <linearGradient
       id="linearGradient161">
      <stop
         style="stop-color:#276fa6;stop-opacity:1;"
         offset="0"
         id="stop162" />
      <stop
         style="stop-color:#3465a4"
         offset="1.0000000"
         id="stop163" />
    </linearGradient>
    <linearGradient
       id="linearGradient172">
      <stop
         style="stop-color:#888a85"
         offset="0.0000000"
         id="stop173" />
      <stop
         style="stop-color:#555753"
         offset="1.0000000"
         id="stop174" />
    </linearGradient>
    <linearGradient
       id="linearGradient1065">
      <stop
         id="stop1066"
         offset="0.0000000"
         style="stop-color:#d3d7cf" />
      <stop
         id="stop1067"
         offset="1.0000000"
         style="stop-color:#888a85" />
    </linearGradient>
    <linearGradient
       id="linearGradient368">
      <stop
         id="stop369"
         offset="0.0000000"
         style="stop-color:#ffffff;stop-opacity:0.10309278;" />
      <stop
         id="stop372"
         offset="1.0000000"
         style="stop-color:#ffffff;stop-opacity:0.0000000;" />
    </linearGradient>
    <linearGradient
       inkscape:collect="always"
       id="linearGradient381">
      <stop
         style="stop-color:#ffffff;stop-opacity:1;"
         offset="0"
         id="stop382" />
      <stop
         style="stop-color:#ffffff;stop-opacity:0;"
         offset="1"
         id="stop383" />
    </linearGradient>
  </defs>
  <sodipodi:namedview
     id="base"
     pagecolor="#ffffff"
     bordercolor="#666666"
     borderopacity="1.0"
     inkscape:pageopacity="0.0"
     inkscape:pageshadow="2"
     inkscape:zoom="0.7"
     inkscape:cx="241.79984"
     inkscape:cy="687.77598"
     inkscape:document-units="px"
     inkscape:current-layer="layer1"
     showgrid="false"
     inkscape:window-width="1394"
     inkscape:window-height="631"
     inkscape:window-x="35"
     inkscape:window-y="166"
     inkscape:window-maximized="0" />
  <metadata
     id="metadata7">
    <rdf:RDF>
      <cc:Work
         rdf:about="">
        <dc:format>image/svg+xml</dc:format>
        <dc:type
           rdf:resource="http://purl.org/dc/dcmitype/StillImage" />
        <dc:title></dc:title>
      </cc:Work>
    </rdf:RDF>
  </metadata>
  <g
     inkscape:label="Layer 1"
     inkscape:groupmode="layer"
     id="layer1">
    <rect
       style="fill:none;stroke:#000000;stroke-width:1;stroke-linecap:round;stroke-linejoin:round;stroke-miterlimit:4;stroke-opacity:1;stroke-dasharray:none"
       id="rect2985"
       width="440"
       height="280"
       x="44.446712"
       y="191.71222"
       ry="0"
       inkscape:export-filename="/home/notroot/src/close-google/lib/banner-small.png"
       inkscape:export-xdpi="90"
       inkscape:export-ydpi="90" />
    <rect
       style="fill:#545454;fill-opacity:1;stroke:none"
       id="rect3755"
       width="439.83762"
       height="280"
       x="45.258396"
       y="189.95337"
       inkscape:export-filename="/home/notroot/src/close-google/lib/banner-small.png"
       inkscape:export-xdpi="90"
       inkscape:export-ydpi="90" />
    <g
       inkscape:label="Layer 1"
       id="layer1-2"
       transform="matrix(2.61253,0,0,2.61253,196.13937,326.82759)">
      <g
         inkscape:export-ydpi="74.800003"
         inkscape:export-xdpi="74.800003"
         inkscape:export-filename="/home/jimmac/ximian_art/icons/nautilus/suse93/gnome-fs-directory.png"
         transform="matrix(1.030048,0,-0.165186,-0.642915,2.47714,64.74043)"
         style="fill-rule:nonzero;stroke:#000000;stroke-miterlimit:4"
         id="g189">
        <g
           id="g190"
           style="stroke:none">
          <g
             id="g191">
            <g
               id="g192"
               style="opacity:0">
              <path
                 id="path193"
                 d="M 9.9,39.7 C 8,39.7 5.7,38.3 4.8,36.6 L 3,33.1 C 2.1,31.4 2.5,28.9 3.9,27.5 l 0.8,-0.8 c 1.4,-1.4 4.1,-2.5 6,-2.5 l 29,0 c 1.9,0 4.7,1 6.2,2.2 l 1.7,1.4 c 1.5,1.2 2.1,3.7 1.4,5.4 l -1.3,3.1 c -0.7,1.8 -2.9,3.2 -4.9,3.2 L 9.9,39.7 z"
                 inkscape:connector-curvature="0" />
            </g>
            <g
               id="g194"
               style="opacity:0.01360001">
              <path
                 id="path195"
                 d="M 5,27.5 C 6.4,26.1 9,25 11,25 l 28.8,0 c 1.9,0 4.7,1 6.2,2.3 l 1,0.9 c 1.5,1.2 2.1,3.7 1.3,5.5 l -1,2.5 c -0.7,1.8 -2.9,3.2 -4.9,3.2 L 10.3,39.5 C 8.4,39.5 6.1,38.1 5.2,36.4 L 3.7,33.6 C 2.8,31.9 3.2,29.3 4.5,28 L 5,27.5 z"
                 inkscape:connector-curvature="0" />
            </g>
            <g
               id="g196"
               style="opacity:0.02729995">
              <path
                 id="path197"
                 d="m 5.4,28.3 c 1.3,-1.4 3.9,-2.5 5.8,-2.5 l 28.6,0 c 1.9,0 4.7,1 6.1,2.3 l 0.5,0.4 c 1.4,1.3 2,3.8 1.3,5.6 L 47,35.9 c -0.7,1.8 -2.9,3.2 -4.8,3.2 L 11,39.2 C 9.1,39.2 6.8,37.8 5.9,36.1 L 4.7,34 C 3.8,32.3 4.1,29.7 5.4,28.4 l 0,-0.1 z"
                 inkscape:connector-curvature="0" />
            </g>
            <g
               id="g198"
               style="opacity:0.04090002">
              <path
                 id="path199"
                 d="M 5.9,28.9 C 7,27.6 9.5,26.6 11.4,26.6 l 28.4,0 c 1.9,0 4.6,1.1 6,2.4 1.4,1.3 1.9,3.8 1.1,5.6 l -0.5,1.1 c -0.7,1.8 -2.9,3.2 -4.8,3.3 L 11.3,39 C 9.4,39 7.1,37.6 6.2,35.9 L 5.4,34.4 C 4.5,32.7 4.7,30.2 5.8,28.9 l 0.1,0 z"
                 inkscape:connector-curvature="0" />
            </g>
            <g
               id="g200"
               style="opacity:0.05449997">
              <path
                 id="path201"
                 d="m 6.5,29.5 c 1,-1.2 3.3,-2.1 5.2,-2.1 l 28.1,0 c 1.9,0 4.5,1 5.6,2.2 1.1,1.2 1.5,3.6 0.8,5.4 L 46,35.4 c -0.7,1.8 -2.9,3.2 -4.8,3.3 L 11.7,38.8 C 9.8,38.8 7.5,37.4 6.6,35.7 L 6.2,34.9 C 5.3,33.2 5.4,30.8 6.4,29.6 l 0.1,-0.1 z"
                 inkscape:connector-curvature="0" />
            </g>
            <g
               id="g202"
               style="opacity:0.06820003">
              <path
                 id="path203"
                 d="m 7,30.1 c 0.8,-1.1 3,-2 4.9,-2 l 27.9,0 c 1.9,0 4.3,0.9 5.3,2 1,1.1 1.2,3.4 0.5,5.1 -0.7,1.7 -2.9,3.1 -4.8,3.1 L 12.2,38.4 C 10.3,38.4 8,37 7.1,35.3 L 7,35.1 C 6.1,33.4 6.1,31.1 6.9,30 L 7,30.1 z"
                 inkscape:connector-curvature="0" />
            </g>
            <g
               id="g204"
               style="opacity:0.08179997">
              <path
                 id="path205"
                 d="m 7.5,30.7 c 0.6,-1 2.7,-1.8 4.7,-1.8 l 27.7,0 c 1.9,0 4.1,0.8 4.9,1.8 0.8,1 0.9,3.1 0.3,4.6 -0.6,1.5 -2.7,2.8 -4.6,2.8 L 12.8,38.2 C 10.9,38.2 8.7,36.9 7.9,35.3 7.1,33.7 7,31.6 7.6,30.6 l -0.1,0.1 z"
                 inkscape:connector-curvature="0" />
            </g>
            <g
               id="g206"
               style="opacity:0.09549997">
              <path
                 id="path207"
                 d="m 8.1,31.3 c 0.5,-0.9 2.4,-1.6 4.4,-1.6 l 27.5,0 c 1.9,0 4,0.7 4.6,1.6 0.6,0.9 0.6,2.8 0.1,4.1 -0.5,1.3 -2.6,2.5 -4.5,2.5 L 13.2,38 C 11.3,38 9.1,36.8 8.5,35.4 7.8,34 7.7,32.1 8.1,31.2 l 0,0.1 z"
                 inkscape:connector-curvature="0" />
            </g>
            <g
               id="g208"
               style="opacity:0.10909998">
              <path
                 id="path209"
                 d="m 8.6,31.9 c 0.3,-0.8 2.1,-1.4 4.1,-1.4 l 27.2,0 c 1.9,0 3.8,0.7 4.2,1.5 0.4,0.8 0.3,2.4 -0.1,3.6 -0.4,1.2 -2.4,2.1 -4.4,2.1 l -26,0.1 c -1.9,0 -4,-1 -4.5,-2.2 C 8.5,34.4 8.3,32.7 8.6,32 l 0,-0.1 z"
                 inkscape:connector-curvature="0" />
            </g>
            <g
               id="g210"
               style="opacity:0.12269999">
              <path
                 id="path211"
                 d="M 9.2,32.5 C 9.3,31.8 11,31.3 13,31.3 l 27,0 c 1.9,0 3.7,0.6 3.9,1.3 0.2,0.7 0,2.1 -0.3,3.1 -0.4,1 -2.3,1.8 -4.2,1.8 L 14.2,37.6 C 12.3,37.6 10.3,36.7 9.8,35.7 9.3,34.6 9.1,33.2 9.2,32.6 l 0,-0.1 z"
                 inkscape:connector-curvature="0" />
            </g>
            <g
               id="g212"
               style="opacity:0.13639999">
              <path
                 id="path213"
                 d="m 9.7,33.1 c 0,-0.6 1.6,-1 3.5,-1 l 26.8,0 c 1.9,0 3.5,0.5 3.5,1.1 0,0.6 -0.2,1.8 -0.6,2.6 -0.4,0.8 -2.1,1.5 -4.1,1.5 l -24.3,0 c -1.9,0 -3.8,-0.7 -4.2,-1.6 C 9.9,34.8 9.6,33.6 9.6,33.1 l 0.1,0 z"
                 inkscape:connector-curvature="0" />
            </g>
            <g
               id="g214"
               style="opacity:0.15">
              <path
                 id="path215"
                 d="m 15,37 c -1.9,0 -3.9,-0.9 -4.3,-2.1 -0.4,-1.2 0.8,-2.1 2.7,-2.1 l 26.6,0 c 1.9,0 3.2,0.9 2.7,2.1 C 42.3,36 40.4,37 38.5,37 L 15,37 z"
                 inkscape:connector-curvature="0" />
            </g>
          </g>
        </g>
      </g>
      <path
         inkscape:r_cy="true"
         inkscape:r_cx="true"
         sodipodi:nodetypes="ccccccc"
         id="path1751"
         d="m 4.000805,16.500028 c -0.043961,-0.03545 1.7269248,25.505493 1.7274293,25.513235 0.1661293,2.550698 1.5607136,3.482935 3.1216556,3.486733 0.055778,1.31e-4 29.2840441,-0.0032 29.9067541,-0.006 2.628697,-0.01121 3.2727,-1.634582 3.445623,-3.408279 0.01387,-0.03497 1.783848,-25.550775 1.797715,-25.585747 -13.333058,0 -26.666116,0 -39.999177,0 z"
         style="fill:url(#linearGradient3075);fill-opacity:1;fill-rule:evenodd;stroke:url(#linearGradient3077);stroke-width:1;stroke-linecap:butt;stroke-linejoin:miter;stroke-miterlimit:4;stroke-opacity:1;stroke-dasharray:none"
         inkscape:connector-curvature="0" />
      <path
         inkscape:r_cy="true"
         inkscape:r_cx="true"
         sodipodi:nodetypes="cccc"
         id="path1893"
         d="M 43.250022,19.023412 7.0000055,19.000007 c 27.3113095,0.637328 32.6772065,3.648148 36.0062495,3.494311 l 0.243767,-3.470906 z"
         style="color:#000000;fill:url(#linearGradient3072);fill-opacity:1;fill-rule:nonzero;stroke:none;stroke-width:0;marker:none;visibility:visible;display:block"
         inkscape:connector-curvature="0" />
      <path
         inkscape:connector-curvature="0"
         sodipodi:nodetypes="ccccccscc"
         id="path41"
         d="m 23.885338,28.315514 5.324054,0.416858 2.058769,-5.14359 -2.435954,1.756934 c 0,0 -1.044495,-2.500028 -1.795225,-2.701007 -0.75073,-0.200977 -3.953712,-0.13398 -3.953712,-0.13398 1.018772,0.258561 1.810543,2.054995 1.822714,2.075373 0.317832,0.532202 1.207518,2.323007 1.207518,2.323007 l -2.228164,1.406409 z"
         style="fill:#e84b43;fill-opacity:0.63529412;fill-rule:evenodd;stroke:none"
         inkscape:r_cx="true"
         inkscape:r_cy="true" />
      <path
         inkscape:connector-curvature="0"
         sodipodi:nodetypes="ccczc"
         id="path130"
         d="m 24.544006,24.757459 -1.76236,3.450116 -3.62309,-2.34474 c 0,0 1.64293,-3.182145 2.93764,-3.182145 1.305663,0 1.88913,1.154945 2.44781,2.076769 z"
         style="color:#000000;fill:#e84b43;fill-opacity:0.63529412;fill-rule:evenodd;stroke:none;stroke-width:1px;marker:none;visibility:visible;display:inline;overflow:visible"
         inkscape:r_cx="true"
         inkscape:r_cy="true" />
      <path
         inkscape:connector-curvature="0"
         sodipodi:nodetypes="ccccccscc"
         id="path139"
         d="M 27.138153,32.94905 23.70558,37.159022 26.981249,41.5 l 0.06059,-2.734168 c 0,0 2.412818,0.233671 2.966593,-0.323977 0.553773,-0.557648 2.857567,-3.369315 2.857567,-3.369315 -0.739645,0.764035 -2.648245,0.537984 -2.671535,0.538229 -0.608218,0.0063 -3.015466,-0.05131 -3.015466,-0.05131 L 27.13815,32.94905 z"
         style="fill:#fcd209;fill-opacity:0.63529412;fill-rule:evenodd;stroke:none"
         inkscape:r_cx="true"
         inkscape:r_cy="true" />
      <path
         inkscape:connector-curvature="0"
         sodipodi:nodetypes="ccczc"
         id="path140"
         d="m 30.359565,35.13022 -1.978563,-3.324382 3.821843,-1.984814 c 0,0 1.81592,3.081543 1.150628,4.221369 -0.670918,1.149469 -1.936222,1.069664 -2.993908,1.087827 z"
         style="color:#000000;fill:#fcd209;fill-opacity:0.63529412;fill-rule:evenodd;stroke:none;stroke-width:1px;marker:none;visibility:visible;display:inline;overflow:visible"
         inkscape:r_cx="true"
         inkscape:r_cy="true" />
      <path
         inkscape:connector-curvature="0"
         sodipodi:nodetypes="ccccccscc"
         id="path142"
         d="m 21.135729,32.704585 -1.694529,-4.579754 -4.941196,0.358355 2.028416,1.516367 c 0,0 -1.400829,2.029534 -1.206063,2.800237 0.194765,0.770701 1.29357,3.963707 1.29357,3.963707 -0.276367,-1.038968 0.866531,-2.623825 0.877942,-2.644663 0.298018,-0.544141 1.547403,-2.656518 1.547403,-2.656518 l 2.094457,1.242269 z"
         style="fill:#419f44;fill-opacity:0.63529412;fill-rule:evenodd;stroke:none"
         inkscape:r_cx="true"
         inkscape:r_cy="true" />
      <path
         inkscape:connector-curvature="0"
         sodipodi:nodetypes="ccczc"
         id="path143"
         d="m 17.746072,34.554344 3.794588,-0.101691 -0.229936,4.389339 c 0,0 -3.508367,0.07815 -4.139207,-1.082123 -0.636176,-1.170087 0.06234,-2.255707 0.574555,-3.20553 z"
         style="color:#000000;fill:#419f44;fill-opacity:0.63529412;fill-rule:evenodd;stroke:none;stroke-width:1px;marker:none;visibility:visible;display:inline;overflow:visible"
         inkscape:r_cx="true"
         inkscape:r_cy="true" />
      <path
         inkscape:r_cy="true"
         inkscape:r_cx="true"
         style="fill:url(#linearGradient3062);fill-opacity:1;fill-rule:evenodd;stroke:none"
         d="m 41.757572,23.260973 c -5.30988,2.360464 -12.583814,4.721296 -18.514497,4.771416 -6.52096,0.05511 -11.325626,3.195741 -16.1926845,5.606073 0.1941106,2.912363 0.4082,4.945784 0.6725937,8.207358 0.1318826,1.62691 0.6360683,1.588264 2.9318178,1.588264 9.084944,0 21.004136,0.01308 28.175381,0.01308 1.755417,0 1.555036,-1.265701 1.649866,-2.477793 0.459058,-5.867624 0.871704,-11.818951 1.277523,-17.708406 z"
         id="path344"
         sodipodi:nodetypes="cccssssc"
         inkscape:connector-curvature="0" />
      <path
         inkscape:r_cy="true"
         inkscape:r_cx="true"
         sodipodi:nodetypes="cssssss"
         id="path375"
         d="m 5.4146811,19.121548 c -0.051256,-1.34e-4 0.8367519,12.817072 1.5422648,21.806255 0.1820049,2.307459 0.551916,3.246606 1.9853618,3.246606 11.8168233,0 28.6106393,0.0861 29.1824863,0.084 2.766505,-0.01016 2.71473,-1.037486 2.943851,-3.220254 0.08341,-0.794605 1.532502,-21.827229 1.518678,-21.827229 -9.901078,0 -24.939532,-0.0574 -37.1726419,-0.08938 z"
         style="fill:none;stroke:url(#linearGradient3059);stroke-width:1;stroke-linecap:butt;stroke-linejoin:miter;stroke-miterlimit:4;stroke-opacity:0.2857143;stroke-dasharray:none"
         inkscape:connector-curvature="0" />
      <path
         transform="matrix(1.021485,0,0,1.028865,-0.537224,-0.298421)"
         inkscape:r_cy="true"
         inkscape:r_cx="true"
         sodipodi:nodetypes="cssssscss"
         id="path1841"
         d="M 7.538492,4.7306315 C 6.494167,4.7330003 5.620149,4.7569809 5.144078,5.7442051 5.061333,5.9157934 2.539129,12.879834 2.417869,13.145414 c -1.038105,2.273602 -0.08076,5.137624 1.92431,5.118449 0.381315,-0.0035 39.510222,0.01776 40.116984,0 1.706821,-0.04908 1.925238,-3.365584 1.190463,-4.857527 -0.04163,-0.08452 -3.451799,-7.7570361 -3.538774,-7.8929342 -0.402274,-0.6069229 -1.30313,-0.8729138 -1.972297,-0.8480012 -0.131821,0.00503 -32.4696,0.064936 -32.600063,0.065231 z"
         style="fill:url(#linearGradient1872);fill-opacity:1;fill-rule:evenodd;stroke:#13588b;stroke-width:0.97544956;stroke-linecap:butt;stroke-linejoin:miter;stroke-miterlimit:4;stroke-opacity:1;stroke-dasharray:none"
         inkscape:connector-curvature="0" />
      <path
         inkscape:r_cy="true"
         inkscape:r_cx="true"
         transform="matrix(1.005586,0,0,1.027013,-0.134078,-0.270972)"
         sodipodi:nodetypes="cssssscss"
         id="path1864"
         d="M 7.72045,6.3900545 C 6.735524,6.3773223 6.671388,6.3392466 6.449677,7.0362462 6.398497,7.1971422 4.336482,13.531607 4.255655,13.777418 c -0.274879,0.835953 0.113825,1.05657 1.067748,1.039577 0.337924,-0.006 37.346756,0 37.884766,0 0.763772,0 0.990332,-0.2516 0.817805,-0.845397 C 43.955868,13.730313 41.085266,6.9669634 41.008179,6.8465153 40.651639,6.3085929 40.713471,6.3101594 40.09072,6.3025755 39.973809,6.301151 7.836071,6.3915492 7.72045,6.3900545 z"
         style="color:#000000;fill:url(#linearGradient164);fill-opacity:1;fill-rule:evenodd;stroke:none;stroke-width:0;marker:none;visibility:visible;display:block"
         inkscape:connector-curvature="0" />
      <path
         inkscape:r_cy="true"
         inkscape:r_cx="true"
         transform="matrix(1.005586,0,0,1.028865,-0.134078,-0.298421)"
         sodipodi:nodetypes="cccccc"
         id="path1880"
         d="m 7.191437,6.3869852 c -0.370875,0.028313 -0.54926,0.1382019 -0.704493,0.6262163 -0.05118,0.1608959 -2.11093,6.4860145 -2.191758,6.7318255 -0.274879,0.835948 0.089771,1.060685 1.043695,1.043693 0.016523,-2.92e-4 1.953333,2.42e-4 2.136667,0 L 7.191437,6.3869852 z"
         style="color:#000000;fill:#115e97;fill-opacity:1;fill-rule:evenodd;stroke:none;stroke-width:0;marker:none;visibility:visible;display:block"
         inkscape:connector-curvature="0" />
      <path
         inkscape:r_cy="true"
         inkscape:r_cx="true"
         transform="matrix(1.005586,0,0,1.028865,-0.134078,-0.298421)"
         sodipodi:nodetypes="cscccc"
         id="path1888"
         d="m 40.143457,6.2999077 c 0.450756,0.00385 0.583121,-0.00518 0.871284,0.5395238 0.03941,0.074491 2.874397,6.7931695 2.976187,7.0389795 0.34617,0.947104 -0.31313,0.927301 -1.358836,0.954772 -0.198658,-2.93e-4 -2.548854,-0.02199 -2.779734,-0.02223 l 0.291099,-8.5110423 z"
         style="color:#000000;fill:url(#linearGradient160);fill-opacity:1;fill-rule:evenodd;stroke:none;stroke-width:0;marker:none;visibility:visible;display:block"
         inkscape:connector-curvature="0" />
    </g>
    <flowRoot
       xml:space="preserve"
       id="flowRoot4045"
       style="font-size:56px;font-style:normal;font-variant:normal;font-weight:bold;font-stretch:normal;text-align:center;line-height:125%;letter-spacing:0px;word-spacing:0px;text-anchor:middle;fill:#a8a8a8;fill-opacity:1;stroke:none;font-family:Times New Roman;-inkscape-font-specification:'Times New Roman, Bold';writing-mode:lr"><flowRegion
         id="flowRegion4047"><rect
           id="rect4049"
           width="337.14285"
           height="64.285713"
           x="91.428574"
           y="213.79076"
           style="fill:#a8a8a8;fill-opacity:1;-inkscape-font-specification:'Times New Roman, Bold';font-family:Times New Roman;font-weight:bold;font-style:normal;font-stretch:normal;font-variant:normal;font-size:56px;text-anchor:middle;text-align:center;writing-mode:lr;line-height:125%" /></flowRegion><flowPara
         id="flowPara4051"
         style="font-size:56px;text-align:center;text-anchor:middle;fill:#a8a8a8;fill-opacity:1;-inkscape-font-specification:'Times New Roman, Bold';font-family:Times New Roman;font-weight:bold;font-style:normal;font-stretch:normal;font-variant:normal;writing-mode:lr;line-height:125%">Tab Closer</flowPara></flowRoot>  </g>
</svg>
